# xmcd
#
# Track frame offsets: 
#        180
#        25760
#        44744
#        58030
#        77578
#        98647
#        117451
#        134772
#        156833
#        180915
#
# Disc length: 2629 seconds
#
# Revision: 1
# Processed by: cddbd v1.5.2PL0 Copyright (c) Steve Scherf et al.
# Submitted via: ExactAudioCopy v1.0b3
#
DISCID=810a430a
DTITLE=許茹芸 - 我依然愛你
DYEAR=1998
DGENRE=Pop
TTITLE0=我依然愛你
TTITLE1=不愛我放了我
TTITLE2=啤酒 咖啡
TTITLE3=我們都寂寞
TTITLE4=情人的畫像
TTITLE5=欲哭無淚
TTITLE6=我是你的藥
TTITLE7=月光的祈禱
TTITLE8=失去
TTITLE9=Ending
EXTD=YEAR: 1998
EXTT0=
EXTT1=
EXTT2=
EXTT3=
EXTT4=
EXTT5=
EXTT6=
EXTT7=
EXTT8=
EXTT9=
PLAYORDER=
